<svg id="Layer_1" data-name="Layer 1" xmlns="http://www.w3.org/2000/svg" viewBox="0 0 504.97 504.97"><defs><style>.cls-1{fill:#f2f2f2;}.cls-1,.cls-2,.cls-3{stroke:#dedede;}.cls-1,.cls-2,.cls-3,.cls-6,.cls-7{stroke-miterlimit:10;}.cls-2,.cls-3,.cls-6,.cls-7{fill:none;}.cls-2,.cls-3{stroke-width:7px;}.cls-3{stroke-dasharray:11.84 11.84;}.cls-4{fill:#e98024;}.cls-5{fill:#2a3052;}.cls-6{stroke:#e98024;}.cls-6,.cls-7{stroke-width:8.94px;}.cls-7{stroke:#2a3052;}</style></defs><title>icon</title><rect class="cls-1" x="4.47" y="0.5" width="83.33" height="83.33"/><rect class="cls-1" x="87.8" y="0.5" width="83.33" height="83.33"/><rect class="cls-1" x="171.14" y="0.5" width="83.33" height="83.33"/><rect class="cls-1" x="254.47" y="0.5" width="83.33" height="83.33"/><rect class="cls-1" x="337.8" y="0.5" width="83.33" height="83.33"/><rect class="cls-1" x="421.14" y="0.5" width="83.33" height="83.33"/><rect class="cls-1" x="4.47" y="83.83" width="83.33" height="83.33"/><rect class="cls-1" x="87.8" y="83.83" width="83.33" height="83.33"/><rect class="cls-1" x="171.14" y="83.83" width="83.33" height="83.33"/><rect class="cls-1" x="254.47" y="83.83" width="83.33" height="83.33"/><rect class="cls-1" x="337.8" y="83.83" width="83.33" height="83.33"/><rect class="cls-1" x="421.14" y="83.83" width="83.33" height="83.33"/><rect class="cls-1" x="4.47" y="167.17" width="83.33" height="83.33"/><rect class="cls-1" x="87.8" y="167.17" width="83.33" height="83.33"/><rect class="cls-1" x="171.14" y="167.17" width="83.33" height="83.33"/><rect class="cls-1" x="254.47" y="167.17" width="83.33" height="83.33"/><rect class="cls-1" x="337.8" y="167.17" width="83.33" height="83.33"/><rect class="cls-1" x="421.14" y="167.17" width="83.33" height="83.33"/><rect class="cls-1" x="4.47" y="250.5" width="83.33" height="83.33"/><rect class="cls-1" x="87.8" y="250.5" width="83.33" height="83.33"/><rect class="cls-1" x="171.14" y="250.5" width="83.33" height="83.33"/><rect class="cls-1" x="254.47" y="250.5" width="83.33" height="83.33"/><rect class="cls-1" x="337.8" y="250.5" width="83.33" height="83.33"/><rect class="cls-1" x="421.14" y="250.5" width="83.33" height="83.33"/><rect class="cls-1" x="4.47" y="333.83" width="83.33" height="83.33"/><rect class="cls-1" x="87.8" y="333.83" width="83.33" height="83.33"/><rect class="cls-1" x="171.14" y="333.83" width="83.33" height="83.33"/><rect class="cls-1" x="254.47" y="333.83" width="83.33" height="83.33"/><rect class="cls-1" x="337.8" y="333.83" width="83.33" height="83.33"/><rect class="cls-1" x="421.14" y="333.83" width="83.33" height="83.33"/><rect class="cls-1" x="4.47" y="417.17" width="83.33" height="83.33"/><rect class="cls-1" x="87.8" y="417.17" width="83.33" height="83.33"/><rect class="cls-1" x="171.14" y="417.17" width="83.33" height="83.33"/><rect class="cls-1" x="254.47" y="417.17" width="83.33" height="83.33"/><rect class="cls-1" x="337.8" y="417.17" width="83.33" height="83.33"/><rect class="cls-1" x="421.14" y="417.17" width="83.33" height="83.33"/><line class="cls-2" x1="7.14" y1="206.85" x2="13.14" y2="206.85"/><line class="cls-3" x1="24.97" y1="206.85" x2="492.55" y2="206.85"/><line class="cls-2" x1="498.47" y1="206.85" x2="504.47" y2="206.85"/><polyline class="cls-4" points="462.8 234.23 484.82 256.25 462.8 278.26"/><polyline class="cls-5" points="462.8 184.83 484.82 206.84 462.8 228.86"/><polyline class="cls-6" points="4.47 288.16 44.63 318.15 82.71 283.37 98 298.66 121.29 288.16 150.63 308.15 187.96 234.23 239.29 211.48 268.05 282.9 293.29 275.99 329.15 304.05 375.74 247.48 401.43 274.15 436.33 256.04 471.29 256.04"/><polyline class="cls-7" points="4.47 250.5 42.13 288.16 93.71 236.57 137.29 275.48 228.63 239.48 332.31 263.75 382.3 200.48 401.96 212.81 455.43 204.81 473.81 204.81"/><polyline class="cls-7" points="504.47 500.5 4.47 500.5 4.47 0.5"/></svg>