<svg id="Layer_1" data-name="Layer 1" xmlns="http://www.w3.org/2000/svg" viewBox="0 0 500 500"><defs><style>.cls-1{fill:#f2f2f2;}.cls-2,.cls-3,.cls-4,.cls-5,.cls-6,.cls-7{fill:none;}.cls-2,.cls-3,.cls-4{stroke:#dedede;}.cls-2,.cls-3,.cls-4,.cls-7{stroke-miterlimit:10;}.cls-3,.cls-4{stroke-width:7px;}.cls-4{stroke-dasharray:11.84 11.84;}.cls-5{stroke:#e98024;stroke-width:4px;}.cls-5,.cls-6{stroke-linejoin:round;}.cls-6,.cls-7{stroke:#2a3052;}.cls-6{stroke-width:8px;}.cls-7{stroke-width:8.94px;}</style></defs><title>volatility</title><rect class="cls-1" width="500" height="500"/><line class="cls-2" y1="83.33" x2="500" y2="83.33"/><line class="cls-2" x1="83.33" x2="83.33" y2="500"/><line class="cls-2" x1="166.67" x2="166.67" y2="500"/><line class="cls-2" x1="250" x2="250" y2="500"/><line class="cls-2" x1="333.33" x2="333.33" y2="500"/><line class="cls-2" x1="416.67" x2="416.67" y2="500"/><line class="cls-2" y1="166.67" x2="500" y2="166.67"/><line class="cls-2" y1="250" x2="500" y2="250"/><line class="cls-2" y1="333.33" x2="500" y2="333.33"/><line class="cls-2" y1="416.67" x2="500" y2="416.67"/><line class="cls-3" x1="2.67" y1="93.99" x2="8.67" y2="93.99"/><line class="cls-4" x1="20.5" y1="93.99" x2="488.08" y2="93.99"/><line class="cls-3" x1="494" y1="93.99" x2="500" y2="93.99"/><path class="cls-5" d="M0,408.65l20.4-48.44,16.93-2.41s23.07,27.73,24.41,23.74,13.33-16.69,13.33-16.69l8.26,12.7L94.4,354.22l9.33,15.33,14-52.23L125,377.56l9.4-5.35,14,26.44,7.33-41.77,10.93,0.67,12.4-9.78,6.67,6.44,12.67-23.56,11.73,36.88,8.93-2.67h18.67l8.13-11.31,13.2-36.23,15.33,27.56,8.67,12.67,14.67-6.23,16,16.23,9.33-13.33,4.67-6.44h15.33L362.7,400l15.7-52.22,13.62,24,15.71-12.86,13.63,21.77,16-30.44,9.37,18.44,5-8.44L464,339.32l15.7,24.09,12-7.86L500,342.22"/><polyline class="cls-6" points="0 308.01 23.07 348.04 57.07 258 76.4 288 94.4 288 121.74 272.67 135.74 286 166.67 169.33 210.14 320 275.07 90.68 285.74 112.7 305.07 116.67 323.74 170.67 345.74 116.67 375 335.03 389.07 339.03 415.32 207.33 426.32 321.03 453.74 83.33 474.4 156.74 491.74 94 500 92.68"/><polyline class="cls-7" points="500 500 0 500 0 0"/></svg>